<?xml version="1.0" encoding="UTF-8"?>
<svg xmlns="http://www.w3.org/2000/svg" viewBox="0 0 512 512" role="img" aria-label="Applycation Logo">
  <defs>
    <linearGradient id="g" x1="0" y1="0" x2="1" y2="1">
      <stop offset="0%" stop-color="#2563eb"/>
      <stop offset="100%" stop-color="#22d3ee"/>
    </linearGradient>
    <filter id="s" x="-20%" y="-20%" width="140%" height="140%">
      <feDropShadow dx="0" dy="6" stdDeviation="10" flood-color="#000" flood-opacity="0.15" />
    </filter>
  </defs>
  <rect width="512" height="512" rx="96" fill="#0f172a"/>
  <g filter="url(#s)">
    <circle cx="256" cy="180" r="80" fill="url(#g)"/>
    <path d="M128 312c0-35 29-64 64-64h128c35 0 64 29 64 64v40c0 22-18 40-40 40H168c-22 0-40-18-40-40v-40z" fill="url(#g)" opacity="0.9"/>
    <path d="M196 316h120c6.6 0 12 5.4 12 12v28c0 6.6-5.4 12-12 12H196c-6.6 0-12-5.4-12-12v-28c0-6.6 5.4-12 12-12z" fill="#0f172a"/>
  </g>
  <text x="256" y="468" text-anchor="middle" font-family="Inter, system-ui, -apple-system, Segoe UI, Roboto, Ubuntu, Cantarell, Noto Sans, Helvetica Neue, Arial, sans-serif" font-size="44" fill="#e2e8f0">Applycation</text>
</svg>


